<svg width="48" height="48" viewBox="0 0 48 48" fill="none" xmlns="http://www.w3.org/2000/svg">
<mask id="path-1-inside-1_609_3587" fill="white">
<path fill-rule="evenodd" clip-rule="evenodd" d="M22.9784 8H25.0211C26.678 8 28.0211 9.34315 28.0211 11V13.2H19.9784V11C19.9784 9.34315 21.3216 8 22.9784 8ZM17.9784 13.2V11C17.9784 8.23858 20.217 6 22.9784 6H25.0211C27.7825 6 30.0211 8.23858 30.0211 11V13.2H36.2878C36.8238 13.2 37.2645 13.6227 37.2869 14.1582L38.4076 40.9582C38.4313 41.5264 37.9771 42 37.4084 42H25.0211H22.9784H10.5913C10.0227 42 9.56844 41.5264 9.5922 40.9582L10.7128 14.1582C10.7352 13.6227 11.1759 13.2 11.712 13.2H17.9784Z"/>
</mask>
<path d="M28.0211 13.2V15.2H30.0211V13.2H28.0211ZM19.9784 13.2H17.9784V15.2H19.9784V13.2ZM17.9784 13.2V15.2H19.9784V13.2H17.9784ZM30.0211 13.2H28.0211V15.2H30.0211V13.2ZM37.2869 14.1582L35.2887 14.2418L35.2887 14.2418L37.2869 14.1582ZM38.4076 40.9582L40.4058 40.8747L40.4058 40.8747L38.4076 40.9582ZM9.5922 40.9582L11.5905 41.0418L11.5905 41.0418L9.5922 40.9582ZM10.7128 14.1582L8.71459 14.0747L10.7128 14.1582ZM25.0211 6H22.9784V10H25.0211V6ZM30.0211 11C30.0211 8.23858 27.7825 6 25.0211 6V10C25.5734 10 26.0211 10.4477 26.0211 11H30.0211ZM30.0211 13.2V11H26.0211V13.2H30.0211ZM28.0211 11.2H19.9784V15.2H28.0211V11.2ZM17.9784 11V13.2H21.9784V11H17.9784ZM22.9784 6C20.217 6 17.9784 8.23858 17.9784 11H21.9784C21.9784 10.4477 22.4261 10 22.9784 10V6ZM15.9784 11V13.2H19.9784V11H15.9784ZM22.9784 4C19.1124 4 15.9784 7.13401 15.9784 11H19.9784C19.9784 9.34315 21.3216 8 22.9784 8V4ZM25.0211 4H22.9784V8H25.0211V4ZM32.0211 11C32.0211 7.13401 28.8871 4 25.0211 4V8C26.678 8 28.0211 9.34315 28.0211 11H32.0211ZM32.0211 13.2V11H28.0211V13.2H32.0211ZM36.2878 11.2H30.0211V15.2H36.2878V11.2ZM39.2852 14.0747C39.218 12.468 37.8959 11.2 36.2878 11.2V15.2C35.7518 15.2 35.3111 14.7773 35.2887 14.2418L39.2852 14.0747ZM40.4058 40.8747L39.2852 14.0747L35.2887 14.2418L36.4093 41.0418L40.4058 40.8747ZM37.4084 44C39.1145 44 40.4771 42.5792 40.4058 40.8747L36.4093 41.0418C36.3856 40.4736 36.8398 40 37.4084 40V44ZM25.0211 44H37.4084V40H25.0211V44ZM22.9784 44H25.0211V40H22.9784V44ZM10.5913 44H22.9784V40H10.5913V44ZM7.59395 40.8747C7.52267 42.5792 8.8853 44 10.5913 44V40C11.16 40 11.6142 40.4736 11.5905 41.0418L7.59395 40.8747ZM8.71459 14.0747L7.59395 40.8747L11.5905 41.0418L12.7111 14.2418L8.71459 14.0747ZM11.712 11.2C10.1039 11.2 8.78177 12.468 8.71459 14.0747L12.7111 14.2418C12.6887 14.7773 12.248 15.2 11.712 15.2V11.2ZM17.9784 11.2H11.712V15.2H17.9784V11.2Z" fill="#FF00FF" mask="url(#path-1-inside-1_609_3587)"/>
</svg>
