<svg width="49" height="24" viewBox="0 0 49 24" fill="none" xmlns="http://www.w3.org/2000/svg">
<g clip-path="url(#clip0_821_32728)">
<path d="M21.0867 7.06387L23.0124 3.70829L29.552 3.28885L29.7807 2.87893L23.7369 2.45949L25.1573 0.00953288H36.368C39.8189 0.00953288 42.3642 1.24881 41.3727 4.86177C41.0772 5.96759 39.6759 8.73213 35.5577 9.8856C36.4347 9.99047 38.6082 10.9533 38.2269 13.4509C37.5596 17.8837 31.8303 19.9905 28.6368 19.9905L15.3956 20L14.7378 17.4357L21.6778 16.9495L21.9161 16.5396L14.3851 16.082L13.5748 13.041L24.2803 12.4118L24.5186 12.0114L5.29075 10.8103L6.21544 9.20877L26.9209 7.86463L27.1592 7.46425L21.0867 7.06387ZM29.7521 7.73117L31.6587 7.72164C32.9361 7.71211 34.2612 7.1306 34.7474 5.95806C35.1954 4.86177 34.5949 3.92755 33.7941 3.93708H31.9447L29.7521 7.73117ZM27.55 11.5348L25.2526 15.5291H27.4452C28.4652 15.5291 30.286 15.0238 30.8484 13.5748C31.3727 12.2212 30.4099 11.5348 29.7426 11.5348H27.55V11.5348ZM10.8484 17.7026L9.51382 19.9809L0 20L0.92469 18.3985L10.8484 17.7026V17.7026ZM11.5157 0L19.1706 0.00953288L19.7521 2.1735L10.6101 1.60153L11.5157 0V0ZM20.1811 3.88942L21.02 7.06387L7.95043 6.20591L8.86559 4.61392L20.1811 3.88942V3.88942ZM13.5272 13.041L11.8684 15.9199L2.65014 15.3956L3.57483 13.7941L13.5272 13.041V13.041Z" fill="#FF00FF"/>
</g>
<defs>
<clipPath id="clip0_821_32728">
<rect width="48.543" height="24" fill="white"/>
</clipPath>
</defs>
</svg>
