<svg width="132" height="48" viewBox="0 0 132 48" fill="none" xmlns="http://www.w3.org/2000/svg">
<path d="M7.512 23.288C6.168 23.288 4.88 23.112 3.648 22.76C2.416 22.392 1.424 21.92 0.672 21.344L1.992 18.416C2.712 18.928 3.56 19.352 4.536 19.688C5.528 20.008 6.528 20.168 7.536 20.168C8.304 20.168 8.92 20.096 9.384 19.952C9.864 19.792 10.216 19.576 10.44 19.304C10.664 19.032 10.776 18.72 10.776 18.368C10.776 17.92 10.6 17.568 10.248 17.312C9.896 17.04 9.432 16.824 8.856 16.664C8.28 16.488 7.64 16.328 6.936 16.184C6.248 16.024 5.552 15.832 4.848 15.608C4.16 15.384 3.528 15.096 2.952 14.744C2.376 14.392 1.904 13.928 1.536 13.352C1.184 12.776 1.008 12.04 1.008 11.144C1.008 10.184 1.264 9.312 1.776 8.528C2.304 7.728 3.088 7.096 4.128 6.632C5.184 6.152 6.504 5.912 8.088 5.912C9.144 5.912 10.184 6.04 11.208 6.296C12.232 6.536 13.136 6.904 13.92 7.4L12.72 10.352C11.936 9.904 11.152 9.576 10.368 9.368C9.584 9.144 8.816 9.032 8.064 9.032C7.312 9.032 6.696 9.12 6.216 9.296C5.736 9.472 5.392 9.704 5.184 9.992C4.976 10.264 4.872 10.584 4.872 10.952C4.872 11.384 5.048 11.736 5.4 12.008C5.752 12.264 6.216 12.472 6.792 12.632C7.368 12.792 8 12.952 8.688 13.112C9.392 13.272 10.088 13.456 10.776 13.664C11.48 13.872 12.12 14.152 12.696 14.504C13.272 14.856 13.736 15.32 14.088 15.896C14.456 16.472 14.64 17.2 14.64 18.08C14.64 19.024 14.376 19.888 13.848 20.672C13.32 21.456 12.528 22.088 11.472 22.568C10.432 23.048 9.112 23.288 7.512 23.288ZM28.8167 6.2H32.7047V23H28.8167V6.2ZM21.1847 23H17.2967V6.2H21.1847V23ZM29.1047 16.112H20.8967V12.824H29.1047V16.112ZM44.8395 23.288C43.5115 23.288 42.2795 23.072 41.1435 22.64C40.0235 22.208 39.0475 21.6 38.2155 20.816C37.3995 20.032 36.7595 19.112 36.2955 18.056C35.8475 17 35.6235 15.848 35.6235 14.6C35.6235 13.352 35.8475 12.2 36.2955 11.144C36.7595 10.088 37.4075 9.168 38.2395 8.384C39.0715 7.6 40.0475 6.992 41.1675 6.56C42.2875 6.128 43.5035 5.912 44.8155 5.912C46.1435 5.912 47.3595 6.128 48.4635 6.56C49.5835 6.992 50.5515 7.6 51.3675 8.384C52.1995 9.168 52.8475 10.088 53.3115 11.144C53.7755 12.184 54.0075 13.336 54.0075 14.6C54.0075 15.848 53.7755 17.008 53.3115 18.08C52.8475 19.136 52.1995 20.056 51.3675 20.84C50.5515 21.608 49.5835 22.208 48.4635 22.64C47.3595 23.072 46.1515 23.288 44.8395 23.288ZM44.8155 19.976C45.5675 19.976 46.2555 19.848 46.8795 19.592C47.5195 19.336 48.0795 18.968 48.5595 18.488C49.0395 18.008 49.4075 17.44 49.6635 16.784C49.9355 16.128 50.0715 15.4 50.0715 14.6C50.0715 13.8 49.9355 13.072 49.6635 12.416C49.4075 11.76 49.0395 11.192 48.5595 10.712C48.0955 10.232 47.5435 9.864 46.9035 9.608C46.2635 9.352 45.5675 9.224 44.8155 9.224C44.0635 9.224 43.3675 9.352 42.7275 9.608C42.1035 9.864 41.5515 10.232 41.0715 10.712C40.5915 11.192 40.2155 11.76 39.9435 12.416C39.6875 13.072 39.5595 13.8 39.5595 14.6C39.5595 15.384 39.6875 16.112 39.9435 16.784C40.2155 17.44 40.5835 18.008 41.0475 18.488C41.5275 18.968 42.0875 19.336 42.7275 19.592C43.3675 19.848 44.0635 19.976 44.8155 19.976ZM56.9295 23V6.2H64.2015C65.7055 6.2 67.0015 6.448 68.0895 6.944C69.1775 7.424 70.0175 8.12 70.6095 9.032C71.2015 9.944 71.4975 11.032 71.4975 12.296C71.4975 13.544 71.2015 14.624 70.6095 15.536C70.0175 16.448 69.1775 17.152 68.0895 17.648C67.0015 18.128 65.7055 18.368 64.2015 18.368H59.0895L60.8175 16.616V23H56.9295ZM60.8175 17.048L59.0895 15.2H63.9855C65.1855 15.2 66.0815 14.944 66.6735 14.432C67.2655 13.92 67.5615 13.208 67.5615 12.296C67.5615 11.368 67.2655 10.648 66.6735 10.136C66.0815 9.624 65.1855 9.368 63.9855 9.368H59.0895L60.8175 7.52V17.048ZM78.5156 23V7.736H72.6116V6.2H86.1956V7.736H80.2916V23H78.5156ZM96.1425 23.144C94.8785 23.144 93.7025 22.936 92.6145 22.52C91.5425 22.088 90.6065 21.488 89.8065 20.72C89.0225 19.936 88.4065 19.032 87.9585 18.008C87.5265 16.968 87.3105 15.832 87.3105 14.6C87.3105 13.368 87.5265 12.24 87.9585 11.216C88.4065 10.176 89.0225 9.272 89.8065 8.504C90.6065 7.72 91.5425 7.12 92.6145 6.704C93.6865 6.272 94.8625 6.056 96.1425 6.056C97.4065 6.056 98.5745 6.272 99.6465 6.704C100.719 7.12 101.647 7.712 102.431 8.48C103.231 9.248 103.847 10.152 104.279 11.192C104.727 12.232 104.951 13.368 104.951 14.6C104.951 15.832 104.727 16.968 104.279 18.008C103.847 19.048 103.231 19.952 102.431 20.72C101.647 21.488 100.719 22.088 99.6465 22.52C98.5745 22.936 97.4065 23.144 96.1425 23.144ZM96.1425 21.56C97.1505 21.56 98.0785 21.392 98.9265 21.056C99.7905 20.704 100.535 20.216 101.159 19.592C101.799 18.952 102.295 18.216 102.647 17.384C102.999 16.536 103.175 15.608 103.175 14.6C103.175 13.592 102.999 12.672 102.647 11.84C102.295 10.992 101.799 10.256 101.159 9.632C100.535 8.992 99.7905 8.504 98.9265 8.168C98.0785 7.816 97.1505 7.64 96.1425 7.64C95.1345 7.64 94.1985 7.816 93.3345 8.168C92.4705 8.504 91.7185 8.992 91.0785 9.632C90.4545 10.256 89.9585 10.992 89.5905 11.84C89.2385 12.672 89.0625 13.592 89.0625 14.6C89.0625 15.592 89.2385 16.512 89.5905 17.36C89.9585 18.208 90.4545 18.952 91.0785 19.592C91.7185 20.216 92.4705 20.704 93.3345 21.056C94.1985 21.392 95.1345 21.56 96.1425 21.56ZM108.931 23V6.2H116.179C118.051 6.2 119.499 6.576 120.523 7.328C121.563 8.08 122.083 9.144 122.083 10.52C122.083 11.432 121.867 12.2 121.435 12.824C121.019 13.448 120.443 13.92 119.707 14.24C118.987 14.56 118.195 14.72 117.331 14.72L117.739 14.144C118.811 14.144 119.731 14.312 120.499 14.648C121.283 14.968 121.891 15.456 122.323 16.112C122.755 16.752 122.971 17.552 122.971 18.512C122.971 19.936 122.443 21.04 121.387 21.824C120.347 22.608 118.771 23 116.659 23H108.931ZM110.707 21.536H116.635C118.107 21.536 119.235 21.288 120.019 20.792C120.803 20.28 121.195 19.472 121.195 18.368C121.195 17.28 120.803 16.488 120.019 15.992C119.235 15.48 118.107 15.224 116.635 15.224H110.515V13.76H116.059C117.403 13.76 118.443 13.504 119.179 12.992C119.931 12.48 120.307 11.72 120.307 10.712C120.307 9.688 119.931 8.928 119.179 8.432C118.443 7.92 117.403 7.664 116.059 7.664H110.707V21.536ZM127.025 23V6.2H128.801V23H127.025Z" fill="#FF00FF"/>
<path d="M45.824 44V32.8H50.384C51.5787 32.8 52.624 33.04 53.52 33.52C54.4267 33.9893 55.1307 34.6453 55.632 35.488C56.1333 36.3307 56.384 37.3013 56.384 38.4C56.384 39.4987 56.1333 40.4693 55.632 41.312C55.1307 42.1547 54.4267 42.816 53.52 43.296C52.624 43.7653 51.5787 44 50.384 44H45.824ZM47.008 42.976H50.32C51.312 42.976 52.1707 42.784 52.896 42.4C53.632 42.0053 54.2027 41.4667 54.608 40.784C55.0133 40.0907 55.216 39.296 55.216 38.4C55.216 37.4933 55.0133 36.6987 54.608 36.016C54.2027 35.3333 53.632 34.8 52.896 34.416C52.1707 34.0213 51.312 33.824 50.32 33.824H47.008V42.976ZM62.2268 44.08C61.4161 44.08 60.6854 43.8987 60.0348 43.536C59.3948 43.1627 58.8881 42.656 58.5148 42.016C58.1414 41.3653 57.9548 40.624 57.9548 39.792C57.9548 38.9493 58.1414 38.208 58.5148 37.568C58.8881 36.928 59.3948 36.4267 60.0348 36.064C60.6748 35.7013 61.4054 35.52 62.2268 35.52C63.0588 35.52 63.7948 35.7013 64.4348 36.064C65.0854 36.4267 65.5921 36.928 65.9548 37.568C66.3281 38.208 66.5148 38.9493 66.5148 39.792C66.5148 40.624 66.3281 41.3653 65.9548 42.016C65.5921 42.656 65.0854 43.1627 64.4348 43.536C63.7841 43.8987 63.0481 44.08 62.2268 44.08ZM62.2268 43.072C62.8348 43.072 63.3734 42.9387 63.8428 42.672C64.3121 42.3947 64.6801 42.0107 64.9468 41.52C65.2241 41.0187 65.3628 40.4427 65.3628 39.792C65.3628 39.1307 65.2241 38.5547 64.9468 38.064C64.6801 37.5733 64.3121 37.1947 63.8428 36.928C63.3734 36.6507 62.8401 36.512 62.2428 36.512C61.6454 36.512 61.1121 36.6507 60.6428 36.928C60.1734 37.1947 59.8001 37.5733 59.5228 38.064C59.2454 38.5547 59.1068 39.1307 59.1068 39.792C59.1068 40.4427 59.2454 41.0187 59.5228 41.52C59.8001 42.0107 60.1734 42.3947 60.6428 42.672C61.1121 42.9387 61.6401 43.072 62.2268 43.072ZM73.17 44.08C72.434 44.08 71.7727 43.9147 71.186 43.584C70.5993 43.2427 70.1353 42.752 69.794 42.112C69.4527 41.472 69.282 40.6987 69.282 39.792C69.282 38.8747 69.4527 38.1013 69.794 37.472C70.146 36.832 70.6153 36.3467 71.202 36.016C71.7887 35.6853 72.4447 35.52 73.17 35.52C73.97 35.52 74.6847 35.7013 75.314 36.064C75.954 36.416 76.4553 36.912 76.818 37.552C77.1807 38.192 77.362 38.9387 77.362 39.792C77.362 40.6347 77.1807 41.3813 76.818 42.032C76.4553 42.672 75.954 43.1733 75.314 43.536C74.6847 43.8987 73.97 44.08 73.17 44.08ZM68.834 44V32.128H69.97V38.08L69.81 39.776L69.922 41.472V44H68.834ZM73.09 43.072C73.6873 43.072 74.2207 42.9387 74.69 42.672C75.1593 42.3947 75.5327 42.0107 75.81 41.52C76.0873 41.0187 76.226 40.4427 76.226 39.792C76.226 39.1307 76.0873 38.5547 75.81 38.064C75.5327 37.5733 75.1593 37.1947 74.69 36.928C74.2207 36.6507 73.6873 36.512 73.09 36.512C72.4927 36.512 71.954 36.6507 71.474 36.928C71.0047 37.1947 70.6313 37.5733 70.354 38.064C70.0873 38.5547 69.954 39.1307 69.954 39.792C69.954 40.4427 70.0873 41.0187 70.354 41.52C70.6313 42.0107 71.0047 42.3947 71.474 42.672C71.954 42.9387 72.4927 43.072 73.09 43.072ZM79.6778 44V35.6H80.7658V37.888L80.6538 37.488C80.8884 36.848 81.2831 36.3627 81.8378 36.032C82.3924 35.6907 83.0804 35.52 83.9018 35.52V36.624C83.8591 36.624 83.8164 36.624 83.7738 36.624C83.7311 36.6133 83.6884 36.608 83.6458 36.608C82.7604 36.608 82.0671 36.88 81.5658 37.424C81.0644 37.9573 80.8138 38.72 80.8138 39.712V44H79.6778ZM89.4645 44.08C88.5898 44.08 87.8218 43.8987 87.1605 43.536C86.4992 43.1627 85.9818 42.656 85.6085 42.016C85.2352 41.3653 85.0485 40.624 85.0485 39.792C85.0485 38.96 85.2245 38.224 85.5765 37.584C85.9392 36.944 86.4298 36.4427 87.0485 36.08C87.6778 35.7067 88.3818 35.52 89.1605 35.52C89.9498 35.52 90.6485 35.7013 91.2565 36.064C91.8752 36.416 92.3605 36.9173 92.7125 37.568C93.0645 38.208 93.2405 38.9493 93.2405 39.792C93.2405 39.8453 93.2352 39.904 93.2245 39.968C93.2245 40.0213 93.2245 40.08 93.2245 40.144H85.9125V39.296H92.6165L92.1685 39.632C92.1685 39.024 92.0352 38.4853 91.7685 38.016C91.5125 37.536 91.1605 37.1627 90.7125 36.896C90.2645 36.6293 89.7472 36.496 89.1605 36.496C88.5845 36.496 88.0672 36.6293 87.6085 36.896C87.1498 37.1627 86.7925 37.536 86.5365 38.016C86.2805 38.496 86.1525 39.0453 86.1525 39.664V39.84C86.1525 40.48 86.2912 41.0453 86.5685 41.536C86.8565 42.016 87.2512 42.3947 87.7525 42.672C88.2645 42.9387 88.8458 43.072 89.4965 43.072C90.0085 43.072 90.4832 42.9813 90.9205 42.8C91.3685 42.6187 91.7525 42.3413 92.0725 41.968L92.7125 42.704C92.3392 43.152 91.8698 43.4933 91.3045 43.728C90.7498 43.9627 90.1365 44.08 89.4645 44.08ZM95.7928 44V32.8H100.625C101.873 32.8 102.838 33.0507 103.521 33.552C104.214 34.0533 104.561 34.7627 104.561 35.68C104.561 36.288 104.417 36.8 104.129 37.216C103.851 37.632 103.467 37.9467 102.977 38.16C102.497 38.3733 101.969 38.48 101.393 38.48L101.665 38.096C102.379 38.096 102.993 38.208 103.505 38.432C104.027 38.6453 104.433 38.9707 104.721 39.408C105.009 39.8347 105.153 40.368 105.153 41.008C105.153 41.9573 104.801 42.6933 104.097 43.216C103.403 43.7387 102.353 44 100.945 44H95.7928ZM96.9768 43.024H100.929C101.91 43.024 102.662 42.8587 103.185 42.528C103.707 42.1867 103.969 41.648 103.969 40.912C103.969 40.1867 103.707 39.6587 103.185 39.328C102.662 38.9867 101.91 38.816 100.929 38.816H96.8488V37.84H100.545C101.441 37.84 102.134 37.6693 102.625 37.328C103.126 36.9867 103.377 36.48 103.377 35.808C103.377 35.1253 103.126 34.6187 102.625 34.288C102.134 33.9467 101.441 33.776 100.545 33.776H96.9768V43.024ZM111.087 44.08C110.373 44.08 109.749 43.9467 109.215 43.68C108.682 43.4133 108.266 43.0133 107.967 42.48C107.679 41.9467 107.535 41.28 107.535 40.48V35.6H108.671V40.352C108.671 41.248 108.89 41.9253 109.327 42.384C109.775 42.832 110.399 43.056 111.199 43.056C111.786 43.056 112.293 42.9387 112.719 42.704C113.157 42.4587 113.487 42.1067 113.711 41.648C113.946 41.1893 114.063 40.64 114.063 40V35.6H115.199V44H114.111V41.696L114.287 42.112C114.021 42.7307 113.605 43.216 113.039 43.568C112.485 43.9093 111.834 44.08 111.087 44.08ZM118.365 44V32.128H119.501V44H118.365ZM126.086 44.08C125.275 44.08 124.545 43.8987 123.894 43.536C123.254 43.1627 122.747 42.656 122.374 42.016C122.001 41.3653 121.814 40.624 121.814 39.792C121.814 38.9493 122.001 38.208 122.374 37.568C122.747 36.928 123.254 36.4267 123.894 36.064C124.534 35.7013 125.265 35.52 126.086 35.52C126.918 35.52 127.654 35.7013 128.294 36.064C128.945 36.4267 129.451 36.928 129.814 37.568C130.187 38.208 130.374 38.9493 130.374 39.792C130.374 40.624 130.187 41.3653 129.814 42.016C129.451 42.656 128.945 43.1627 128.294 43.536C127.643 43.8987 126.907 44.08 126.086 44.08ZM126.086 43.072C126.694 43.072 127.233 42.9387 127.702 42.672C128.171 42.3947 128.539 42.0107 128.806 41.52C129.083 41.0187 129.222 40.4427 129.222 39.792C129.222 39.1307 129.083 38.5547 128.806 38.064C128.539 37.5733 128.171 37.1947 127.702 36.928C127.233 36.6507 126.699 36.512 126.102 36.512C125.505 36.512 124.971 36.6507 124.502 36.928C124.033 37.1947 123.659 37.5733 123.382 38.064C123.105 38.5547 122.966 39.1307 122.966 39.792C122.966 40.4427 123.105 41.0187 123.382 41.52C123.659 42.0107 124.033 42.3947 124.502 42.672C124.971 42.9387 125.499 43.072 126.086 43.072Z" fill="#FF00FF"/>
</svg>
