<svg width="24" height="24" fill="none" xmlns="http://www.w3.org/2000/svg"><path fill-rule="evenodd" clip-rule="evenodd" d="M14.187 7.186a1 1 0 0 1 1.413 0l1.21 1.211a1 1 0 0 1 0 1.415l-2.335 2.335-.4.4.137.548-.293 1.742-1.77-1.77-.002-.001-.002-.002-1.21-1.21-.002-.003-.002-.001-1.77-1.77v-.002l1.742-.293.548.137.4-.4 2.336-2.336Zm2.828-1.413a3 3 0 0 0-4.244 0l-2.018 2.018c-.06.005-.122.012-.183.023l-1.742.293c-1.604.27-2.231 2.237-1.083 3.386l1.525 1.524-3.286 4.225a.55.55 0 0 0 .771.772l4.225-3.287 1.524 1.524c1.15 1.15 3.118.52 3.388-1.081l.293-1.743c.01-.06.018-.122.022-.183l2.019-2.018a3 3 0 0 0 0-4.242l-1.211-1.21Z" fill="#F0F"/></svg>