<svg width="31" height="24" viewBox="0 0 31 24" fill="none" xmlns="http://www.w3.org/2000/svg">
<g clip-path="url(#clip0_821_32726)">
<path fill-rule="evenodd" clip-rule="evenodd" d="M30.2996 0.653154C30.0062 0.17986 29.372 0.321732 28.6053 0.691141C27.6118 1.11676 25.8233 3.10413 25.388 4.21158C25 5.80124 24.0914 7.26842 22.6149 8.84878C21.1291 10.0601 18.489 9.57752 16.9652 8.61194C16.8706 8.61194 10.6151 3.73829 10.6151 3.73829C8.37226 1.96876 6.81051 1.20204 4.92741 0.974885C4.83283 0.918291 4.74755 0.82371 4.71925 0.757426C4.42582 0.104272 4.36923 0.161253 4.16068 0C3.91493 0.18955 3.73507 0.293434 3.48892 0.369022C3.37535 0.369022 3.35635 0.369022 3.29007 0.331422C3.1389 0.265138 2.97803 0.132569 2.81716 0.123266C2.62761 0.161253 2.47644 0.539579 2.22099 0.918291C2.22099 0.918291 1.7853 1.29662 1.38798 1.62765C1.23641 1.76022 1.21742 1.96876 1.11354 2.09164C0.905381 2.31879 0.659237 2.68781 0.621249 2.68781C0.526668 2.95256 0.489068 3.18941 0.659237 3.31228C0.659237 3.60572 0.810799 3.6813 0.867393 3.74759C0.914684 3.84217 0.924374 3.88016 0.990658 3.94644C1.10423 3.99373 1.19881 4.01273 1.31239 4.04102C1.91786 4.5996 2.16401 4.58991 2.86445 4.49532C4.0754 4.5806 3.97152 4.98761 3.94322 5.60278C3.86764 5.69736 3.84864 5.68767 3.76336 5.73496C3.22378 5.73496 2.65591 5.61208 2.11672 5.61208C0.933678 5.71635 -0.0884989 5.92451 0.00608239 7.35331C0.0820575 7.91188 1.09454 8.68791 1.62482 7.63744C1.70041 7.15445 2.10703 7.3723 2.45744 7.48588C4.57699 8.40378 6.27132 8.87707 7.39738 7.92118C7.7381 7.49557 7.94626 7.7983 8.29629 8.05375C9.99991 10.0791 12.4416 11.3943 16.1985 11.4416C17.4478 11.7541 18.4037 12.2746 18.877 13.5046C20.0406 16.4858 21.5171 18.8895 23.6844 20.1481C23.5045 22.0316 23.5805 23.593 25.4826 24C25.9841 23.593 25.2837 22.9778 25.8609 21.5963C25.8136 20.9812 25.2837 20.4796 25.1038 19.3058C22.8893 17.489 23.8262 16.7413 23.4952 15.5299C23.4665 13.7604 23.0789 12.4072 22.3311 11.0633C22.2459 10.8454 22.3877 10.6846 22.5866 10.571C23.8359 9.63411 24.5174 8.71621 24.8201 7.8266C25.2837 6.24624 26.069 5.00661 27.1858 4.117C28.1324 3.35957 29.0313 3.12312 30.0535 2.45097C30.6872 1.41019 30.5927 1.12645 30.2996 0.653154Z" fill="#FF00FF"/>
</g>
<defs>
<clipPath id="clip0_821_32726">
<rect width="30.8571" height="24" fill="white"/>
</clipPath>
</defs>
</svg>
