<svg width="80" height="23" viewBox="0 0 80 23" fill="none" xmlns="http://www.w3.org/2000/svg">
<path fill-rule="evenodd" clip-rule="evenodd" d="M71.4292 0C57.9112 3.29566 52.81 5.17464 44.6174 8.45443L36.661 3.78376C47.8516 1.59922 64.0878 0.484131 71.4292 0ZM29.8554 19.3216H19.1489C20.2739 17.7839 24.0775 13.7322 30.9149 10.7144C32.8157 11.387 34.6848 12.0814 36.5459 12.7997C34.0875 14.5418 31.9764 16.1092 29.8554 19.3216ZM21.2582 7.6312C11.7065 11.0459 6.39494 14.7523 2.8096 19.3218H14.6391C15.7918 17.7186 20.1808 13.0916 28.4288 9.87526C26.155 9.10541 22.2026 7.87128 21.2582 7.6312ZM0 0.440328H26.1609H26.1649C29.6093 2.10304 57.7762 18.6944 59.5243 20C57.5501 19.163 55.648 18.3496 53.7987 17.5588C36.5041 10.1632 23.8274 4.74227 0 0.440328Z" fill="#FF00FF"/>
</svg>
